# This file uses centimeters as units for non-parametric coordinates.

mtllib bullet.mtl
g default
v 0.822888 -0.269081 0.618396
v 0.700851 -0.498975 0.617479
v 0.510774 -0.681421 0.616751
v 0.271264 -0.798558 0.616283
v 0.005764 -0.838921 0.616122
v -0.259735 -0.798558 0.616283
v -0.499245 -0.681421 0.616751
v -0.689322 -0.498975 0.617479
v -0.811358 -0.269081 0.618396
v -0.853409 -0.014241 0.619413
v -0.811358 0.240599 0.620430
v -0.689322 0.470493 0.621347
v -0.499245 0.652939 0.622075
v -0.259735 0.770076 0.622542
v 0.005764 0.810438 0.622703
v 0.271264 0.770076 0.622542
v 0.510774 0.652939 0.622075
v 0.700850 0.470493 0.621347
v 0.822887 0.240599 0.620430
v 0.864938 -0.014241 0.619413
v 0.822888 -0.251532 -2.336108
v 0.700851 -0.481426 -2.337025
v 0.510774 -0.663872 -2.337753
v 0.271264 -0.781009 -2.338220
v 0.005764 -0.821371 -2.338381
v -0.259735 -0.781009 -2.338220
v -0.499245 -0.663872 -2.337753
v -0.689322 -0.481426 -2.337025
v -0.811358 -0.251532 -2.336108
v -0.853409 0.003308 -2.335091
v -0.811358 0.258148 -2.334074
v -0.689322 0.488042 -2.333157
v -0.499245 0.670488 -2.332429
v -0.259735 0.787625 -2.331961
v 0.005764 0.827987 -2.331800
v 0.271264 0.787625 -2.331961
v 0.510774 0.670488 -2.332429
v 0.700850 0.488042 -2.333157
v 0.822887 0.258148 -2.334074
v 0.864938 0.003308 -2.335091
v 0.005764 -0.029008 2.978444
v 0.005764 0.003308 -2.335091
v 0.481293 -0.173975 1.486555
v 0.410273 -0.313358 1.485999
v 0.299657 -0.423973 1.485557
v 0.160273 -0.494992 1.485274
v 0.005764 -0.519461 1.485184
v -0.148744 -0.494991 1.485278
v -0.288128 -0.423973 1.485557
v -0.398742 -0.313356 1.486006
v -0.469764 -0.173975 1.486555
v -0.494236 -0.019467 1.487171
v -0.469761 0.135039 1.487795
v -0.398744 0.274423 1.488344
v -0.288128 0.385038 1.488786
v -0.148744 0.456057 1.489069
v 0.005764 0.480529 1.489167
v 0.160273 0.456057 1.489069
v 0.299657 0.385038 1.488786
v 0.410273 0.274423 1.488344
v 0.481293 0.135040 1.487788
v 0.505764 -0.019467 1.487171
v -0.477132 -0.170156 0.927639
v -0.405010 -0.309154 0.927089
v -0.292682 -0.419466 0.926644
v -0.151138 -0.490289 0.926363
v 0.005764 -0.514693 0.926268
v 0.162667 -0.490290 0.926361
v 0.304211 -0.419466 0.926644
v 0.416540 -0.309155 0.927087
v 0.488661 -0.170156 0.927639
v 0.513511 -0.016073 0.928254
v 0.488661 0.138009 0.928868
v 0.416540 0.277008 0.929423
v 0.304210 0.387318 0.929864
v 0.162667 0.458143 0.930146
v 0.005764 0.482547 0.930243
v -0.151138 0.458143 0.930146
v -0.292681 0.387318 0.929865
v -0.405012 0.277008 0.929423
v -0.477131 0.138008 0.928872
v -0.501983 -0.016073 0.928254
v 0.822888 -0.253464 -1.996808
v 0.700851 -0.483358 -1.997725
v 0.510774 -0.665803 -1.998453
v 0.271264 -0.782940 -1.998921
v 0.005764 -0.823303 -1.999082
v -0.259735 -0.782940 -1.998921
v -0.499245 -0.665803 -1.998453
v -0.689322 -0.483358 -1.997725
v -0.811358 -0.253463 -1.996808
v -0.853409 0.001376 -1.995791
v -0.811358 0.256216 -1.994774
v -0.689322 0.486111 -1.993857
v -0.499245 0.668556 -1.993129
v -0.259735 0.785693 -1.992662
v 0.005764 0.826056 -1.992501
v 0.271264 0.785693 -1.992662
v 0.510774 0.668556 -1.993129
v 0.700850 0.486111 -1.993857
v 0.822887 0.256216 -1.994774
v 0.864938 0.001376 -1.995791
v 0.632390 -0.418379 -2.129464
v 0.742407 -0.218241 -2.128666
v 0.461034 -0.577209 -2.130098
v 0.245114 -0.679184 -2.130505
v 0.005764 -0.714322 -2.130645
v -0.233585 -0.679184 -2.130505
v -0.449505 -0.577209 -2.130098
v -0.620861 -0.418379 -2.129464
v -0.730878 -0.218241 -2.128666
v -0.768787 0.003613 -2.127781
v -0.730878 0.225467 -2.126895
v -0.620861 0.425604 -2.126097
v -0.449505 0.584434 -2.125463
v -0.233585 0.686409 -2.125056
v 0.005764 0.721548 -2.124916
v 0.245114 0.686409 -2.125056
v 0.461034 0.584434 -2.125463
v 0.632389 0.425604 -2.126097
v 0.742406 0.225467 -2.126895
v 0.780316 0.003613 -2.127781
v 0.632390 -0.417373 -2.171914
v 0.742407 -0.217999 -2.171119
v 0.461034 -0.575597 -2.172545
v 0.245114 -0.677184 -2.172951
v 0.005764 -0.712188 -2.173090
v -0.233585 -0.677184 -2.172951
v -0.449505 -0.575597 -2.172545
v -0.620861 -0.417373 -2.171914
v -0.730878 -0.217999 -2.171119
v -0.768787 0.003009 -2.170237
v -0.730878 0.224017 -2.169355
v -0.620861 0.423391 -2.168559
v -0.449505 0.581616 -2.167928
v -0.233585 0.683202 -2.167523
v 0.005764 0.718206 -2.167383
v 0.245114 0.683202 -2.167523
v 0.461034 0.581616 -2.167928
v 0.632389 0.423391 -2.168559
v 0.742406 0.224017 -2.169355
v 0.780316 0.003009 -2.170237
vt 0.648603 0.107966
vt 0.626409 0.064408
vt 0.591842 0.029841
vt 0.548284 0.007647
vt 0.500000 -0.000000
vt 0.451716 0.007647
vt 0.408159 0.029841
vt 0.373591 0.064409
vt 0.351397 0.107966
vt 0.343750 0.156250
vt 0.351397 0.204534
vt 0.373591 0.248091
vt 0.408159 0.282659
vt 0.451716 0.304853
vt 0.500000 0.312500
vt 0.548284 0.304853
vt 0.591841 0.282659
vt 0.626409 0.248091
vt 0.648603 0.204534
vt 0.656250 0.156250
vt 0.375000 0.312500
vt 0.387500 0.312500
vt 0.400000 0.312500
vt 0.412500 0.312500
vt 0.425000 0.312500
vt 0.437500 0.312500
vt 0.450000 0.312500
vt 0.462500 0.312500
vt 0.475000 0.312500
vt 0.487500 0.312500
vt 0.500000 0.312500
vt 0.512500 0.312500
vt 0.525000 0.312500
vt 0.537500 0.312500
vt 0.550000 0.312500
vt 0.562500 0.312500
vt 0.575000 0.312500
vt 0.587500 0.312500
vt 0.600000 0.312500
vt 0.612500 0.312500
vt 0.625000 0.312500
vt 0.375000 0.688440
vt 0.387500 0.688440
vt 0.400000 0.688440
vt 0.412500 0.688440
vt 0.425000 0.688440
vt 0.437500 0.688440
vt 0.450000 0.688440
vt 0.462500 0.688440
vt 0.475000 0.688440
vt 0.487500 0.688440
vt 0.500000 0.688440
vt 0.512500 0.688440
vt 0.525000 0.688440
vt 0.537500 0.688440
vt 0.550000 0.688440
vt 0.562500 0.688440
vt 0.575000 0.688440
vt 0.587500 0.688440
vt 0.600000 0.688440
vt 0.612500 0.688440
vt 0.625000 0.688440
vt 0.648603 0.795466
vt 0.626409 0.751908
vt 0.591842 0.717341
vt 0.548284 0.695147
vt 0.500000 0.687500
vt 0.451716 0.695147
vt 0.408159 0.717341
vt 0.373591 0.751909
vt 0.351397 0.795466
vt 0.343750 0.843750
vt 0.351397 0.892034
vt 0.373591 0.935591
vt 0.408159 0.970159
vt 0.451716 0.992353
vt 0.500000 1.000000
vt 0.548284 0.992353
vt 0.591841 0.970159
vt 0.626409 0.935591
vt 0.648603 0.892034
vt 0.656250 0.843750
vt 0.500000 0.150000
vt 0.500000 0.837500
vt 0.563205 0.107204
vt 0.574301 0.128983
vt 0.545921 0.089921
vt 0.524142 0.078824
vt 0.500000 0.075001
vt 0.475858 0.078824
vt 0.454079 0.089921
vt 0.436796 0.107205
vt 0.425699 0.128983
vt 0.421875 0.153125
vt 0.425700 0.177267
vt 0.436796 0.199045
vt 0.454080 0.216329
vt 0.475858 0.227426
vt 0.500000 0.231250
vt 0.524142 0.227426
vt 0.545921 0.216329
vt 0.563204 0.199046
vt 0.574301 0.177267
vt 0.578125 0.153125
vt 0.405194 0.085807
vt 0.388548 0.118475
vt 0.431119 0.059881
vt 0.463787 0.043236
vt 0.500000 0.037500
vt 0.536213 0.043236
vt 0.568881 0.059881
vt 0.594806 0.085807
vt 0.611452 0.118475
vt 0.617188 0.154687
vt 0.611452 0.190900
vt 0.594807 0.223569
vt 0.568881 0.249494
vt 0.536213 0.266139
vt 0.500000 0.271875
vt 0.463787 0.266139
vt 0.431119 0.249494
vt 0.405193 0.223568
vt 0.388549 0.190900
vt 0.382813 0.154687
vt 0.375000 0.500470
vt 0.387500 0.500470
vt 0.400000 0.500470
vt 0.412500 0.500470
vt 0.425000 0.500470
vt 0.437500 0.500470
vt 0.450000 0.500470
vt 0.462500 0.500470
vt 0.475000 0.500470
vt 0.487500 0.500470
vt 0.500000 0.500470
vt 0.512500 0.500470
vt 0.525000 0.500470
vt 0.537500 0.500470
vt 0.550000 0.500470
vt 0.562500 0.500470
vt 0.575000 0.500470
vt 0.587500 0.500470
vt 0.600000 0.500470
vt 0.612500 0.500470
vt 0.625000 0.500470
vt 0.375000 0.594455
vt 0.387500 0.594455
vt 0.400000 0.594455
vt 0.412500 0.594455
vt 0.425000 0.594455
vt 0.437500 0.594455
vt 0.450000 0.594455
vt 0.462500 0.594455
vt 0.475000 0.594455
vt 0.487500 0.594455
vt 0.500000 0.594455
vt 0.512500 0.594455
vt 0.525000 0.594455
vt 0.537500 0.594455
vt 0.550000 0.594455
vt 0.562500 0.594455
vt 0.575000 0.594455
vt 0.587500 0.594455
vt 0.600000 0.594455
vt 0.612500 0.594455
vt 0.625000 0.594455
vt 0.375000 0.641447
vt 0.387500 0.641447
vt 0.400000 0.641447
vt 0.412500 0.641447
vt 0.425000 0.641447
vt 0.437500 0.641447
vt 0.450000 0.641447
vt 0.462500 0.641447
vt 0.475000 0.641447
vt 0.487500 0.641447
vt 0.500000 0.641447
vt 0.512500 0.641447
vt 0.525000 0.641447
vt 0.537500 0.641447
vt 0.550000 0.641447
vt 0.562500 0.641447
vt 0.575000 0.641447
vt 0.587500 0.641447
vt 0.600000 0.641447
vt 0.612500 0.641447
vt 0.625000 0.641447
vn 0.767485 -0.558647 0.314454
vn 0.901992 -0.294114 0.316082
vn 0.000003 -0.005073 0.999987
vn 0.557728 -0.768680 0.313161
vn 0.293256 -0.903577 0.312331
vn 0.000000 -0.950068 0.312044
vn -0.293256 -0.903577 0.312330
vn -0.557728 -0.768680 0.313161
vn -0.767485 -0.558647 0.314453
vn -0.901991 -0.294115 0.316082
vn -0.948129 -0.001046 0.317886
vn -0.901456 0.291851 0.319688
vn -0.766618 0.555927 0.321313
vn -0.556862 0.765397 0.322602
vn -0.292720 0.899838 0.323430
vn -0.000000 0.946155 0.323715
vn 0.292720 0.899838 0.323430
vn 0.556862 0.765397 0.322602
vn 0.766619 0.555926 0.321313
vn 0.901456 0.291850 0.319688
vn 0.948128 -0.001045 0.317886
vn -0.306988 -0.951692 -0.006367
vn -0.000003 -0.999967 -0.008135
vn -0.000004 -0.999967 -0.008135
vn -0.305962 -0.952022 -0.006379
vn -0.585013 -0.811022 -0.001643
vn -0.583565 -0.812065 -0.001676
vn -0.807006 -0.590526 0.004494
vn -0.805888 -0.592052 0.004456
vn -0.950375 -0.310942 0.010084
vn -0.949949 -0.312243 0.010063
vn -0.999909 0.000161 0.013461
vn -0.999909 -0.000254 0.013459
vn -0.950239 0.311214 0.013859
vn -0.950061 0.311758 0.013857
vn -0.806795 0.590716 0.011661
vn -0.806075 0.591699 0.011649
vn -0.584809 0.811130 0.008201
vn -0.583752 0.811891 0.008186
vn -0.306875 0.951736 0.005188
vn -0.306093 0.951988 0.005182
vn 0.000000 0.999992 0.004007
vn 0.000000 0.999992 0.004007
vn 0.306875 0.951736 0.005188
vn 0.306093 0.951988 0.005182
vn 0.584809 0.811129 0.008202
vn 0.583752 0.811891 0.008187
vn 0.806793 0.590720 0.011660
vn 0.806071 0.591705 0.011648
vn 0.950239 0.311214 0.013857
vn 0.950061 0.311757 0.013855
vn 0.999909 0.000156 0.013460
vn 0.999909 -0.000262 0.013458
vn 0.950377 -0.310937 0.010083
vn 0.949952 -0.312235 0.010062
vn 0.807006 -0.590526 0.004492
vn 0.805888 -0.592052 0.004454
vn 0.585011 -0.811024 -0.001645
vn 0.583562 -0.812067 -0.001678
vn 0.306988 -0.951692 -0.006368
vn 0.305962 -0.952022 -0.006380
vn -0.537789 -0.402799 0.740632
vn -0.534882 -0.407009 0.740436
vn -0.628447 -0.215314 0.747459
vn -0.629405 -0.212205 0.747541
vn -0.392803 -0.556246 0.732322
vn -0.388787 -0.559312 0.732130
vn -0.207382 -0.656141 0.725583
vn -0.204446 -0.657143 0.725510
vn 0.000001 -0.690854 0.722994
vn 0.000001 -0.690854 0.722994
vn 0.204445 -0.657142 0.725511
vn 0.207381 -0.656141 0.725584
vn 0.388786 -0.559311 0.732131
vn 0.392802 -0.556245 0.732323
vn 0.534881 -0.407008 0.740437
vn 0.537789 -0.402799 0.740633
vn 0.628446 -0.215314 0.747459
vn 0.629404 -0.212206 0.747542
vn 0.660514 -0.003077 0.750808
vn 0.660513 -0.002901 0.750809
vn 0.628967 0.206280 0.749566
vn 0.628103 0.209063 0.749519
vn 0.537080 0.396539 0.744514
vn 0.534335 0.400503 0.744368
vn 0.392093 0.549574 0.737720
vn 0.388249 0.552503 0.737566
vn 0.206939 0.649138 0.731981
vn 0.204115 0.650100 0.731920
vn 0.000000 0.683723 0.729742
vn 0.000000 0.683723 0.729742
vn -0.204115 0.650100 0.731920
vn -0.206938 0.649139 0.731981
vn -0.388249 0.552504 0.737565
vn -0.392094 0.549574 0.737720
vn -0.534335 0.400504 0.744367
vn -0.537081 0.396541 0.744513
vn -0.628105 0.209063 0.749518
vn -0.628968 0.206280 0.749565
vn -0.660514 -0.003079 0.750807
vn -0.660514 -0.002903 0.750808
vn 0.797245 -0.603646 -0.003605
vn 0.797437 -0.603392 -0.003603
vn 0.947265 -0.320446 -0.001914
vn 0.947141 -0.320812 -0.001916
vn 0.571926 -0.820291 -0.004899
vn 0.572109 -0.820163 -0.004898
vn 0.297678 -0.954649 -0.005701
vn 0.297787 -0.954615 -0.005701
vn -0.000000 -0.999982 -0.005972
vn -0.000000 -0.999982 -0.005972
vn -0.297679 -0.954649 -0.005701
vn -0.297787 -0.954615 -0.005701
vn -0.571926 -0.820290 -0.004899
vn -0.572109 -0.820163 -0.004898
vn -0.797245 -0.603645 -0.003605
vn -0.797437 -0.603391 -0.003603
vn -0.947141 -0.320813 -0.001916
vn -0.947265 -0.320447 -0.001914
vn -1.000000 -0.000205 -0.000001
vn -1.000000 0.000205 0.000001
vn -0.947264 0.320447 0.001914
vn -0.947141 0.320813 0.001916
vn -0.797437 0.603392 0.003603
vn -0.797245 0.603646 0.003605
vn -0.572109 0.820163 0.004898
vn -0.571926 0.820290 0.004899
vn -0.297787 0.954615 0.005701
vn -0.297678 0.954649 0.005701
vn 0.000000 0.999982 0.005972
vn 0.000000 0.999982 0.005972
vn 0.297787 0.954615 0.005701
vn 0.297679 0.954649 0.005701
vn 0.572109 0.820163 0.004898
vn 0.571926 0.820291 0.004899
vn 0.797437 0.603391 0.003603
vn 0.797245 0.603645 0.003605
vn 0.947264 0.320447 0.001914
vn 0.947141 0.320813 0.001916
vn 1.000000 -0.000204 -0.000001
vn 1.000000 0.000206 0.000001
vn 0.000000 0.003990 -0.999992
vn 0.000000 0.003990 -0.999992
vn 0.000000 0.003990 -0.999992
vn 0.000000 0.003990 -0.999992
vn 0.000000 0.003990 -0.999992
vn 0.000000 0.003990 -0.999992
vn 0.000000 0.003990 -0.999992
vn 0.000000 0.003990 -0.999992
vn 0.000000 0.003990 -0.999992
vn 0.000000 0.003990 -0.999992
vn 0.000000 0.003990 -0.999992
vn 0.000000 0.003990 -0.999992
vn 0.000000 0.003990 -0.999992
vn 0.000000 0.003990 -0.999992
vn 0.000000 0.003990 -0.999992
vn 0.000000 0.003990 -0.999992
vn 0.000000 0.003990 -0.999992
vn 0.000000 0.003990 -0.999992
vn 0.000000 0.003990 -0.999992
vn 0.000000 0.003990 -0.999992
vn 0.000000 0.003990 -0.999992
vn 0.835288 -0.286995 0.468965
vn 0.690626 -0.529451 0.492664
vn 0.684747 -0.536189 0.493581
vn 0.833084 -0.292702 0.469357
vn 0.484433 -0.703362 0.520199
vn 0.477484 -0.707505 0.521005
vn 0.247552 -0.803764 0.541000
vn 0.243076 -0.804942 0.541278
vn -0.000000 -0.836080 0.548607
vn 0.000000 -0.836080 0.548607
vn -0.247552 -0.803764 0.541000
vn -0.243076 -0.804942 0.541279
vn -0.484433 -0.703362 0.520199
vn -0.477484 -0.707504 0.521005
vn -0.690626 -0.529450 0.492664
vn -0.684748 -0.536189 0.493581
vn -0.835288 -0.286996 0.468965
vn -0.833084 -0.292703 0.469357
vn -0.887943 -0.001662 0.459950
vn -0.887943 -0.002026 0.459949
vn -0.835662 0.283712 0.470295
vn -0.833707 0.288797 0.470668
vn -0.691250 0.526294 0.495164
vn -0.685718 0.532649 0.496060
vn -0.485070 0.700398 0.523593
vn -0.478408 0.704375 0.524387
vn -0.247948 0.800973 0.544944
vn -0.243623 0.802112 0.545219
vn 0.000000 0.833357 0.552736
vn 0.000000 0.833357 0.552736
vn 0.247948 0.800973 0.544944
vn 0.243624 0.802112 0.545219
vn 0.485070 0.700398 0.523593
vn 0.478408 0.704375 0.524386
vn 0.691250 0.526294 0.495165
vn 0.685718 0.532649 0.496060
vn 0.835662 0.283712 0.470295
vn 0.833707 0.288797 0.470668
vn 0.887943 -0.001661 0.459950
vn 0.887943 -0.002025 0.459949
vn -0.648902 -0.491700 -0.580653
vn -0.453130 -0.651728 -0.608213
vn -0.445806 -0.655945 -0.609093
vn -0.642383 -0.498923 -0.581739
vn -0.788103 -0.265561 -0.555312
vn -0.785356 -0.272412 -0.555885
vn -0.839842 0.003081 -0.542822
vn -0.839830 0.001140 -0.542848
vn -0.790530 0.272558 -0.548429
vn -0.789140 0.276145 -0.548636
vn -0.652857 0.500912 -0.568212
vn -0.648194 0.506192 -0.568871
vn -0.457073 0.663661 -0.592147
vn -0.451247 0.667079 -0.592774
vn -0.233201 0.756964 -0.610429
vn -0.229383 0.757950 -0.610651
vn -0.000000 0.786859 -0.617133
vn 0.000000 0.786859 -0.617133
vn 0.229383 0.757950 -0.610651
vn 0.233201 0.756964 -0.610429
vn 0.451247 0.667079 -0.592774
vn 0.457073 0.663661 -0.592147
vn 0.648194 0.506192 -0.568871
vn 0.652857 0.500912 -0.568213
vn 0.789140 0.276145 -0.548636
vn 0.790530 0.272558 -0.548429
vn 0.839830 0.001141 -0.542848
vn 0.839842 0.003082 -0.542822
vn 0.785356 -0.272412 -0.555885
vn 0.788103 -0.265560 -0.555312
vn 0.642383 -0.498923 -0.581739
vn 0.648902 -0.491700 -0.580653
vn 0.445806 -0.655944 -0.609093
vn 0.453130 -0.651728 -0.608214
vn 0.226195 -0.744062 -0.628655
vn 0.230789 -0.742897 -0.628364
vn 0.000000 -0.772001 -0.635622
vn 0.000000 -0.772000 -0.635622
vn -0.230789 -0.742897 -0.628363
vn -0.226195 -0.744062 -0.628655
vn -0.288751 -0.956403 -0.043762
vn -0.000000 -0.998816 -0.048645
vn -0.000000 -0.998816 -0.048645
vn -0.286522 -0.957070 -0.043839
vn -0.559160 -0.828484 -0.030894
vn -0.556100 -0.830534 -0.031085
vn -0.787374 -0.616291 -0.015066
vn -0.785425 -0.618770 -0.015219
vn -0.943557 -0.331194 -0.003258
vn -0.943443 -0.331518 -0.003266
vn -0.999997 -0.001949 -0.001679
vn -0.999997 0.001963 -0.001734
vn -0.944664 0.327800 -0.012493
vn -0.942137 0.334981 -0.012876
vn -0.788740 0.613874 -0.032371
vn -0.783181 0.620917 -0.033006
vn -0.560059 0.826674 -0.054255
vn -0.553726 0.830896 -0.054769
vn -0.289099 0.954679 -0.070785
vn -0.285002 0.955897 -0.070960
vn -0.000000 0.997040 -0.076880
vn 0.000000 0.997040 -0.076880
vn 0.289099 0.954679 -0.070785
vn 0.285002 0.955897 -0.070960
vn 0.560059 0.826674 -0.054256
vn 0.553726 0.830896 -0.054770
vn 0.788740 0.613874 -0.032370
vn 0.783181 0.620917 -0.033006
vn 0.944665 0.327800 -0.012492
vn 0.942137 0.334981 -0.012875
vn 0.999997 -0.001948 -0.001678
vn 0.999997 0.001964 -0.001734
vn 0.943557 -0.331193 -0.003257
vn 0.943444 -0.331517 -0.003265
vn 0.787374 -0.616291 -0.015065
vn 0.785425 -0.618770 -0.015219
vn 0.559160 -0.828484 -0.030893
vn 0.556100 -0.830534 -0.031085
vn 0.288751 -0.956404 -0.043762
vn 0.286522 -0.957070 -0.043839
s 1
g pCylinder1
usemtl initialShadingGroup
f 44/85/1 43/86/2 41/83/3
f 45/87/4 44/85/1 41/83/3
f 46/88/5 45/87/4 41/83/3
f 47/89/6 46/88/5 41/83/3
f 48/90/7 47/89/6 41/83/3
f 49/91/8 48/90/7 41/83/3
f 50/92/9 49/91/8 41/83/3
f 51/93/10 50/92/9 41/83/3
f 52/94/11 51/93/10 41/83/3
f 53/95/12 52/94/11 41/83/3
f 54/96/13 53/95/12 41/83/3
f 55/97/14 54/96/13 41/83/3
f 56/98/15 55/97/14 41/83/3
f 57/99/16 56/98/15 41/83/3
f 58/100/17 57/99/16 41/83/3
f 59/101/18 58/100/17 41/83/3
f 60/102/19 59/101/18 41/83/3
f 61/103/20 60/102/19 41/83/3
f 62/104/21 61/103/20 41/83/3
f 43/86/2 62/104/21 41/83/3
s 2
f 66/108/22 67/109/23 47/89/24 48/90/25
f 65/107/26 66/108/22 48/90/25 49/91/27
f 64/105/28 65/107/26 49/91/27 50/92/29
f 63/106/30 64/105/28 50/92/29 51/93/31
f 82/124/32 63/106/30 51/93/31 52/94/33
f 81/123/34 82/124/32 52/94/33 53/95/35
f 80/122/36 81/123/34 53/95/35 54/96/37
f 79/121/38 80/122/36 54/96/37 55/97/39
f 78/120/40 79/121/38 55/97/39 56/98/41
f 77/119/42 78/120/40 56/98/41 57/99/43
f 76/118/44 77/119/42 57/99/43 58/100/45
f 75/117/46 76/118/44 58/100/45 59/101/47
f 74/116/48 75/117/46 59/101/47 60/102/49
f 73/115/50 74/116/48 60/102/49 61/103/51
f 72/114/52 73/115/50 61/103/51 62/104/53
f 71/113/54 72/114/52 62/104/53 43/86/55
f 70/112/56 71/113/54 43/86/55 44/85/57
f 69/111/58 70/112/56 44/85/57 45/87/59
f 68/110/60 69/111/58 45/87/59 46/88/61
f 67/109/23 68/110/60 46/88/61 47/89/24
s 3
f 8/8/62 64/105/63 63/106/64 9/9/65
f 7/7/66 65/107/67 64/105/63 8/8/62
f 6/6/68 66/108/69 65/107/67 7/7/66
f 5/5/70 67/109/71 66/108/69 6/6/68
f 68/110/72 67/109/71 5/5/70 4/4/73
f 69/111/74 68/110/72 4/4/73 3/3/75
f 70/112/76 69/111/74 3/3/75 2/2/77
f 71/113/78 70/112/76 2/2/77 1/1/79
f 72/114/80 71/113/78 1/1/79 20/20/81
f 19/19/82 73/115/83 72/114/80 20/20/81
f 18/18/84 74/116/85 73/115/83 19/19/82
f 17/17/86 75/117/87 74/116/85 18/18/84
f 16/16/88 76/118/89 75/117/87 17/17/86
f 15/15/90 77/119/91 76/118/89 16/16/88
f 78/120/92 77/119/91 15/15/90 14/14/93
f 79/121/94 78/120/92 14/14/93 13/13/95
f 80/122/96 79/121/94 13/13/95 12/12/97
f 81/123/98 80/122/96 12/12/97 11/11/99
f 82/124/100 81/123/98 11/11/99 10/10/101
f 9/9/65 63/106/64 82/124/100 10/10/101
s 4
f 2/22/102 84/126/103 83/125/104 1/21/105
f 3/23/106 85/127/107 84/126/103 2/22/102
f 4/24/108 86/128/109 85/127/107 3/23/106
f 5/25/110 87/129/111 86/128/109 4/24/108
f 6/26/112 88/130/113 87/129/111 5/25/110
f 7/27/114 89/131/115 88/130/113 6/26/112
f 8/28/116 90/132/117 89/131/115 7/27/114
f 9/29/118 91/133/119 90/132/117 8/28/116
f 10/30/120 92/134/121 91/133/119 9/29/118
f 11/31/122 93/135/123 92/134/121 10/30/120
f 12/32/124 94/136/125 93/135/123 11/31/122
f 13/33/126 95/137/127 94/136/125 12/32/124
f 14/34/128 96/138/129 95/137/127 13/33/126
f 15/35/130 97/139/131 96/138/129 14/34/128
f 16/36/132 98/140/133 97/139/131 15/35/130
f 17/37/134 99/141/135 98/140/133 16/36/132
f 18/38/136 100/142/137 99/141/135 17/37/134
f 19/39/138 101/143/139 100/142/137 18/38/136
f 20/40/140 102/144/141 101/143/139 19/39/138
f 1/41/105 83/145/104 102/144/141 20/40/140
s 5
f 21/81/142 22/80/143 42/84/144
f 22/80/143 23/79/145 42/84/144
f 23/79/145 24/78/146 42/84/144
f 24/78/146 25/77/147 42/84/144
f 25/77/147 26/76/148 42/84/144
f 26/76/148 27/75/149 42/84/144
f 27/75/149 28/74/150 42/84/144
f 28/74/150 29/73/151 42/84/144
f 29/73/151 30/72/152 42/84/144
f 30/72/152 31/71/153 42/84/144
f 31/71/153 32/70/154 42/84/144
f 32/70/154 33/69/155 42/84/144
f 33/69/155 34/68/156 42/84/144
f 34/68/156 35/67/157 42/84/144
f 35/67/157 36/66/158 42/84/144
f 36/66/158 37/65/159 42/84/144
f 37/65/159 38/64/160 42/84/144
f 38/64/160 39/63/161 42/84/144
f 39/63/161 40/82/162 42/84/144
f 40/82/162 21/81/142 42/84/144
s 6
f 124/167/163 123/168/164 22/43/165 21/42/166
f 123/168/164 125/169/167 23/44/168 22/43/165
f 125/169/167 126/170/169 24/45/170 23/44/168
f 126/170/169 127/171/171 25/46/172 24/45/170
f 127/171/171 128/172/173 26/47/174 25/46/172
f 128/172/173 129/173/175 27/48/176 26/47/174
f 129/173/175 130/174/177 28/49/178 27/48/176
f 130/174/177 131/175/179 29/50/180 28/49/178
f 131/175/179 132/176/181 30/51/182 29/50/180
f 132/176/181 133/177/183 31/52/184 30/51/182
f 133/177/183 134/178/185 32/53/186 31/52/184
f 134/178/185 135/179/187 33/54/188 32/53/186
f 135/179/187 136/180/189 34/55/190 33/54/188
f 136/180/189 137/181/191 35/56/192 34/55/190
f 137/181/191 138/182/193 36/57/194 35/56/192
f 138/182/193 139/183/195 37/58/196 36/57/194
f 139/183/195 140/184/197 38/59/198 37/58/196
f 140/184/197 141/185/199 39/60/200 38/59/198
f 141/185/199 142/186/201 40/61/202 39/60/200
f 142/186/201 124/187/163 21/62/166 40/61/202
s 7
f 110/153/203 109/152/204 89/131/205 90/132/206
f 111/154/207 110/153/203 90/132/206 91/133/208
f 112/155/209 111/154/207 91/133/208 92/134/210
f 113/156/211 112/155/209 92/134/210 93/135/212
f 114/157/213 113/156/211 93/135/212 94/136/214
f 115/158/215 114/157/213 94/136/214 95/137/216
f 116/159/217 115/158/215 95/137/216 96/138/218
f 117/160/219 116/159/217 96/138/218 97/139/220
f 98/140/221 118/161/222 117/160/219 97/139/220
f 99/141/223 119/162/224 118/161/222 98/140/221
f 100/142/225 120/163/226 119/162/224 99/141/223
f 101/143/227 121/164/228 120/163/226 100/142/225
f 102/144/229 122/165/230 121/164/228 101/143/227
f 83/145/231 104/166/232 122/165/230 102/144/229
f 84/126/233 103/147/234 104/146/232 83/125/231
f 85/127/235 105/148/236 103/147/234 84/126/233
f 86/128/237 106/149/238 105/148/236 85/127/235
f 87/129/239 107/150/240 106/149/238 86/128/237
f 108/151/241 107/150/240 87/129/239 88/130/242
f 109/152/204 108/151/241 88/130/242 89/131/205
s 8
f 128/172/243 127/171/244 107/150/245 108/151/246
f 129/173/247 128/172/243 108/151/246 109/152/248
f 130/174/249 129/173/247 109/152/248 110/153/250
f 131/175/251 130/174/249 110/153/250 111/154/252
f 132/176/253 131/175/251 111/154/252 112/155/254
f 133/177/255 132/176/253 112/155/254 113/156/256
f 134/178/257 133/177/255 113/156/256 114/157/258
f 135/179/259 134/178/257 114/157/258 115/158/260
f 136/180/261 135/179/259 115/158/260 116/159/262
f 137/181/263 136/180/261 116/159/262 117/160/264
f 138/182/265 137/181/263 117/160/264 118/161/266
f 139/183/267 138/182/265 118/161/266 119/162/268
f 140/184/269 139/183/267 119/162/268 120/163/270
f 141/185/271 140/184/269 120/163/270 121/164/272
f 142/186/273 141/185/271 121/164/272 122/165/274
f 124/187/275 142/186/273 122/165/274 104/166/276
f 123/168/277 124/167/275 104/146/276 103/147/278
f 125/169/279 123/168/277 103/147/278 105/148/280
f 126/170/281 125/169/279 105/148/280 106/149/282
f 127/171/244 126/170/281 106/149/282 107/150/245
