# This file uses centimeters as units for non-parametric coordinates.

mtllib bullet.mtl
g default
v 0.822888 -0.269081 0.618396
v 0.700851 -0.498975 0.617479
v 0.510774 -0.681421 0.616751
v 0.271264 -0.798560 0.616283
v 0.005764 -0.838921 0.616122
v -0.259735 -0.798559 0.616283
v -0.499245 -0.681421 0.616751
v -0.689322 -0.498975 0.617479
v -0.811358 -0.269081 0.618396
v -0.853409 -0.014241 0.619413
v -0.811358 0.240599 0.620430
v -0.689322 0.470494 0.621347
v -0.499245 0.652939 0.622075
v -0.259735 0.770075 0.622542
v 0.005764 0.810438 0.622703
v 0.271264 0.770075 0.622542
v 0.510774 0.652939 0.622075
v 0.700850 0.470494 0.621347
v 0.822887 0.240599 0.620430
v 0.864938 -0.014241 0.619413
v 0.822888 -0.251532 -2.336107
v 0.700851 -0.481427 -2.337025
v 0.510774 -0.663872 -2.337753
v 0.271264 -0.781009 -2.338220
v 0.005764 -0.821372 -2.338381
v -0.259735 -0.781009 -2.338220
v -0.499245 -0.663872 -2.337753
v -0.689322 -0.481427 -2.337025
v -0.811358 -0.251532 -2.336107
v -0.853409 0.003308 -2.335091
v -0.811358 0.258148 -2.334073
v -0.689322 0.488042 -2.333157
v -0.499245 0.670488 -2.332428
v -0.259735 0.787625 -2.331959
v 0.005764 0.827988 -2.331800
v 0.271264 0.787625 -2.331959
v 0.510774 0.670488 -2.332428
v 0.700850 0.488042 -2.333157
v 0.822887 0.258148 -2.334073
v 0.864938 0.003308 -2.335091
v 0.005764 -0.029008 2.978448
v 0.005764 0.003308 -2.335091
v 0.481293 -0.173975 1.486553
v 0.410273 -0.313358 1.485999
v 0.299657 -0.423973 1.485555
v 0.160273 -0.494992 1.485274
v 0.005764 -0.519461 1.485181
v -0.148744 -0.494991 1.485278
v -0.288128 -0.423973 1.485555
v -0.398742 -0.313356 1.486006
v -0.469764 -0.173975 1.486553
v -0.494236 -0.019467 1.487171
v -0.469761 0.135039 1.487795
v -0.398744 0.274423 1.488344
v -0.288128 0.385038 1.488786
v -0.148744 0.456058 1.489067
v 0.005764 0.480529 1.489166
v 0.160273 0.456057 1.489067
v 0.299657 0.385038 1.488785
v 0.410273 0.274423 1.488344
v 0.481293 0.135040 1.487788
v 0.505764 -0.019467 1.487171
v -0.477132 -0.170156 0.927639
v -0.405010 -0.309155 0.927089
v -0.292682 -0.419466 0.926644
v -0.151138 -0.490289 0.926363
v 0.005764 -0.514694 0.926268
v 0.162667 -0.490290 0.926361
v 0.304211 -0.419466 0.926644
v 0.416540 -0.309155 0.927087
v 0.488661 -0.170156 0.927639
v 0.513511 -0.016073 0.928254
v 0.488661 0.138009 0.928866
v 0.416540 0.277008 0.929423
v 0.304210 0.387319 0.929864
v 0.162667 0.458143 0.930146
v 0.005764 0.482547 0.930241
v -0.151138 0.458143 0.930146
v -0.292681 0.387319 0.929865
v -0.405012 0.277008 0.929423
v -0.477131 0.138008 0.928870
v -0.501983 -0.016073 0.928254
v 0.822888 -0.253464 -1.996808
v 0.700851 -0.483358 -1.997725
v 0.510774 -0.665804 -1.998453
v 0.271264 -0.782941 -1.998921
v 0.005764 -0.823304 -1.999082
v -0.259735 -0.782941 -1.998921
v -0.499245 -0.665804 -1.998453
v -0.689322 -0.483358 -1.997725
v -0.811358 -0.253463 -1.996808
v -0.853409 0.001376 -1.995791
v -0.811358 0.256216 -1.994774
v -0.689322 0.486111 -1.993857
v -0.499245 0.668556 -1.993128
v -0.259735 0.785694 -1.992661
v 0.005764 0.826056 -1.992501
v 0.271264 0.785694 -1.992661
v 0.510774 0.668556 -1.993128
v 0.700850 0.486111 -1.993857
v 0.822887 0.256216 -1.994774
v 0.864938 0.001376 -1.995791
v 0.632390 -0.418379 -2.129464
v 0.742407 -0.218241 -2.128666
v 0.461034 -0.577210 -2.130098
v 0.245114 -0.679184 -2.130505
v 0.005764 -0.714323 -2.130645
v -0.233585 -0.679184 -2.130505
v -0.449505 -0.577210 -2.130098
v -0.620861 -0.418379 -2.129464
v -0.730878 -0.218241 -2.128666
v -0.768787 0.003613 -2.127780
v -0.730878 0.225467 -2.126895
v -0.620861 0.425605 -2.126097
v -0.449505 0.584435 -2.125463
v -0.233585 0.686409 -2.125056
v 0.005764 0.721548 -2.124916
v 0.245114 0.686409 -2.125056
v 0.461034 0.584435 -2.125463
v 0.632389 0.425605 -2.126097
v 0.742406 0.225467 -2.126895
v 0.780316 0.003613 -2.127780
v 0.632390 -0.417373 -2.171914
v 0.742407 -0.217999 -2.171121
v 0.461034 -0.575598 -2.172546
v 0.245114 -0.677184 -2.172951
v 0.005764 -0.712189 -2.173091
v -0.233585 -0.677184 -2.172951
v -0.449505 -0.575598 -2.172546
v -0.620861 -0.417373 -2.171914
v -0.730878 -0.217999 -2.171121
v -0.768787 0.003009 -2.170237
v -0.730878 0.224017 -2.169355
v -0.620861 0.423391 -2.168560
v -0.449505 0.581616 -2.167928
v -0.233585 0.683202 -2.167523
v 0.005764 0.718206 -2.167383
v 0.245114 0.683202 -2.167523
v 0.461034 0.581616 -2.167928
v 0.632389 0.423391 -2.168560
v 0.742406 0.224017 -2.169355
v 0.780316 0.003009 -2.170237
vt 0.482708 0.086516
vt 0.476382 0.120546
vt 0.293711 0.155939
vt 0.494591 0.059510
vt 0.513469 0.042171
vt 0.049075 0.036197
vt 0.073952 0.042172
vt 0.092830 0.059510
vt 0.104713 0.086517
vt 0.111039 0.120546
vt 0.113042 0.158268
vt 0.111142 0.195990
vt 0.104907 0.230020
vt 0.093074 0.257026
vt 0.074142 0.274365
vt 0.049075 0.280340
vt 0.494347 0.257026
vt 0.482514 0.230020
vt 0.476279 0.195990
vt 0.474379 0.158268
vt 0.306864 0.761267
vt 0.328194 0.791114
vt 0.324578 0.812970
vt 0.300865 0.797415
vt 0.317309 0.732579
vt 0.334003 0.773769
vt 0.341554 0.762632
vt 0.350089 0.758795
vt 0.358624 0.762632
vt 0.367996 0.714160
vt 0.366175 0.773769
vt 0.382869 0.732579
vt 0.371984 0.791114
vt 0.393314 0.761267
vt 0.375600 0.812970
vt 0.399313 0.797415
vt 0.376817 0.837198
vt 0.401233 0.837487
vt 0.399249 0.877558
vt 0.375581 0.861426
vt 0.393200 0.913707
vt 0.371952 0.883283
vt 0.382740 0.942394
vt 0.366142 0.900628
vt 0.358603 0.911765
vt 0.350089 0.915602
vt 0.341575 0.911765
vt 0.332271 0.960813
vt 0.334036 0.900628
vt 0.317438 0.942394
vt 0.328226 0.883283
vt 0.306978 0.913707
vt 0.324597 0.861426
vt 0.300929 0.877558
vt 0.323362 0.837198
vt 0.298946 0.837487
vt 0.573429 0.763722
vt 0.567776 0.799871
vt 0.583009 0.735034
vt 0.596259 0.716615
vt 0.088286 0.710269
vt 0.103919 0.716615
vt 0.117169 0.735034
vt 0.126749 0.763722
vt 0.132402 0.799871
vt 0.134273 0.839942
vt 0.132454 0.880014
vt 0.126841 0.916162
vt 0.117271 0.944850
vt 0.103987 0.963269
vt 0.714497 0.431932
vt 0.717827 0.396343
vt 0.318743 0.455639
vt 0.723577 0.368225
vt 0.323880 0.327702
vt 0.420476 0.337853
vt 0.433969 0.356596
vt 0.437445 0.385085
vt 0.437911 0.420826
vt 0.436921 0.460384
vt 0.434936 0.499903
vt 0.431849 0.535501
vt 0.426481 0.563635
vt 0.412372 0.581270
vt 0.313605 0.583576
vt 0.727090 0.593907
vt 0.714440 0.575198
vt 0.711345 0.546724
vt 0.711122 0.510993
vt 0.712313 0.471443
vt 0.697255 0.436450
vt 0.088286 0.969616
vt 0.582907 0.944850
vt 0.573337 0.916162
vt 0.697433 0.405477
vt 0.695645 0.380820
vt 0.579074 0.354915
vt 0.470506 0.355995
vt 0.460800 0.371390
vt 0.457041 0.395825
vt 0.454736 0.426712
vt 0.453126 0.460989
vt 0.452176 0.495292
vt 0.452235 0.526274
vt 0.454403 0.550947
vt 0.463765 0.567108
vt 0.676998 0.575670
vt 0.687625 0.560312
vt 0.691764 0.535892
vt 0.694307 0.505015
vt 0.696111 0.470746
vt 0.579087 0.354584
vt 0.483495 0.356205
vt 0.468170 0.371435
vt 0.462472 0.395886
vt 0.459373 0.426860
vt 0.457535 0.461259
vt 0.456801 0.495703
vt 0.457641 0.526835
vt 0.461723 0.551679
vt 0.476549 0.568120
vt 0.570143 0.577338
vt 0.664174 0.575654
vt 0.680271 0.560454
vt 0.686331 0.536018
vt 0.689665 0.505053
vt 0.691694 0.470662
vt 0.692621 0.436226
vt 0.692015 0.405104
vt 0.688295 0.380274
vt 0.674241 0.363864
vt 0.611892 0.710269
vt 0.598962 0.732930
vt 0.611892 0.727405
vt 0.596191 0.963269
vt 0.611892 0.953183
vt 0.367907 0.960813
vt 0.855876 0.960813
vt 0.627592 0.963269
vt 0.611892 0.969616
vt 0.350089 0.967160
vt 0.332182 0.714160
vt 0.350089 0.707813
vt 0.101216 0.732930
vt 0.567724 0.880013
vt 0.565905 0.839942
vt 0.120694 0.773940
vt 0.112390 0.748965
vt 0.125712 0.805409
vt 0.088286 0.727405
vt 0.587788 0.748965
vt 0.579484 0.773940
vt 0.574466 0.805409
vt 0.572785 0.840294
vt 0.574428 0.875178
vt 0.579419 0.906648
vt 0.538346 0.036197
vt 0.538346 0.037361
vt 0.513279 0.274365
vt 0.538346 0.280832
vt 0.526486 0.274874
vt 0.563412 0.274365
vt 0.538346 0.280340
vt 0.526529 0.043319
vt 0.516297 0.060610
vt 0.508672 0.087543
vt 0.504053 0.121478
vt 0.502504 0.159097
vt 0.504017 0.196715
vt 0.508611 0.230651
vt 0.516231 0.257583
vt 0.049075 0.280832
vt 0.060935 0.274874
vt 0.071190 0.257583
vt 0.078810 0.230651
vt 0.083404 0.196715
vt 0.084917 0.159097
vt 0.083368 0.121478
vt 0.078749 0.087543
vt 0.071124 0.060611
vt 0.049075 0.037361
vt 0.060892 0.043319
vt 0.127393 0.840294
vt 0.125750 0.875178
vt 0.120759 0.906648
vt 0.112459 0.931623
vt 0.587719 0.931623
vt 0.598917 0.947657
vt 0.088286 0.953183
vt 0.101261 0.947657
vt 0.830490 0.476188
vt 0.738529 0.350624
vt 0.687205 0.364696
vt 0.835628 0.348251
vt 0.924120 0.601819
vt 0.975513 0.587657
vt 0.825353 0.604125
vt 0.570163 0.576819
vn 0.767485 -0.558647 0.314453
vn 0.901992 -0.294114 0.316081
vn 0.000003 -0.005079 0.999987
vn 0.557728 -0.768681 0.313160
vn 0.293257 -0.903577 0.312330
vn -0.000000 -0.950068 0.312043
vn -0.293257 -0.903577 0.312330
vn -0.557728 -0.768681 0.313160
vn -0.767485 -0.558647 0.314453
vn -0.901992 -0.294114 0.316081
vn -0.948129 -0.001049 0.317885
vn -0.901456 0.291850 0.319687
vn -0.766618 0.555927 0.321313
vn -0.556861 0.765398 0.322602
vn -0.292719 0.899839 0.323429
vn 0.000000 0.946155 0.323714
vn 0.292720 0.899838 0.323428
vn 0.556861 0.765398 0.322601
vn 0.766619 0.555927 0.321313
vn 0.901456 0.291850 0.319687
vn 0.948129 -0.001047 0.317885
vn -0.306990 -0.951692 -0.006366
vn -0.000004 -0.999967 -0.008134
vn -0.000006 -0.999967 -0.008134
vn -0.305964 -0.952022 -0.006378
vn -0.585013 -0.811023 -0.001643
vn -0.583565 -0.812065 -0.001676
vn -0.807006 -0.590526 0.004494
vn -0.805888 -0.592052 0.004456
vn -0.950375 -0.310942 0.010084
vn -0.949949 -0.312243 0.010063
vn -0.999909 0.000162 0.013461
vn -0.999909 -0.000253 0.013459
vn -0.950239 0.311214 0.013859
vn -0.950061 0.311758 0.013857
vn -0.806796 0.590715 0.011661
vn -0.806075 0.591699 0.011649
vn -0.584810 0.811129 0.008202
vn -0.583754 0.811890 0.008187
vn -0.306874 0.951736 0.005188
vn -0.306093 0.951988 0.005182
vn 0.000000 0.999992 0.004007
vn 0.000000 0.999992 0.004007
vn 0.306874 0.951736 0.005188
vn 0.306093 0.951988 0.005182
vn 0.584810 0.811129 0.008202
vn 0.583754 0.811890 0.008187
vn 0.806793 0.590719 0.011660
vn 0.806071 0.591705 0.011648
vn 0.950239 0.311214 0.013857
vn 0.950061 0.311758 0.013855
vn 0.999909 0.000158 0.013460
vn 0.999909 -0.000261 0.013458
vn 0.950377 -0.310937 0.010083
vn 0.949951 -0.312235 0.010062
vn 0.807006 -0.590526 0.004492
vn 0.805888 -0.592052 0.004454
vn 0.585012 -0.811023 -0.001645
vn 0.583563 -0.812066 -0.001678
vn 0.306989 -0.951692 -0.006367
vn 0.305963 -0.952022 -0.006379
vn -0.537790 -0.402799 0.740632
vn -0.534882 -0.407009 0.740436
vn -0.628447 -0.215314 0.747459
vn -0.629405 -0.212205 0.747541
vn -0.392804 -0.556245 0.732323
vn -0.388788 -0.559311 0.732131
vn -0.207382 -0.656140 0.725584
vn -0.204446 -0.657142 0.725511
vn 0.000001 -0.690854 0.722995
vn 0.000000 -0.690854 0.722995
vn 0.204446 -0.657142 0.725512
vn 0.207382 -0.656140 0.725585
vn 0.388787 -0.559310 0.732132
vn 0.392803 -0.556244 0.732324
vn 0.534881 -0.407008 0.740437
vn 0.537789 -0.402799 0.740633
vn 0.628446 -0.215314 0.747459
vn 0.629404 -0.212206 0.747542
vn 0.660513 -0.003075 0.750809
vn 0.660513 -0.002898 0.750810
vn 0.628966 0.206280 0.749567
vn 0.628102 0.209062 0.749520
vn 0.537081 0.396537 0.744515
vn 0.534335 0.400500 0.744369
vn 0.392093 0.549574 0.737720
vn 0.388249 0.552504 0.737565
vn 0.206937 0.649139 0.731981
vn 0.204114 0.650100 0.731920
vn 0.000000 0.683722 0.729743
vn 0.000000 0.683722 0.729743
vn -0.204114 0.650101 0.731920
vn -0.206937 0.649139 0.731981
vn -0.388249 0.552504 0.737565
vn -0.392093 0.549575 0.737720
vn -0.534336 0.400502 0.744368
vn -0.537081 0.396539 0.744514
vn -0.628104 0.209062 0.749519
vn -0.628967 0.206280 0.749566
vn -0.660514 -0.003077 0.750808
vn -0.660513 -0.002901 0.750809
vn 0.797245 -0.603645 -0.003605
vn 0.797437 -0.603391 -0.003603
vn 0.947265 -0.320446 -0.001914
vn 0.947141 -0.320812 -0.001916
vn 0.571927 -0.820290 -0.004899
vn 0.572110 -0.820162 -0.004898
vn 0.297678 -0.954649 -0.005701
vn 0.297787 -0.954615 -0.005701
vn -0.000000 -0.999982 -0.005972
vn -0.000000 -0.999982 -0.005972
vn -0.297679 -0.954649 -0.005701
vn -0.297787 -0.954615 -0.005701
vn -0.571928 -0.820289 -0.004899
vn -0.572111 -0.820162 -0.004898
vn -0.797245 -0.603645 -0.003605
vn -0.797437 -0.603391 -0.003603
vn -0.947141 -0.320813 -0.001916
vn -0.947264 -0.320447 -0.001914
vn -1.000000 -0.000205 -0.000001
vn -1.000000 0.000205 0.000001
vn -0.947264 0.320447 0.001914
vn -0.947141 0.320813 0.001916
vn -0.797437 0.603391 0.003603
vn -0.797245 0.603645 0.003605
vn -0.572109 0.820163 0.004898
vn -0.571926 0.820291 0.004899
vn -0.297787 0.954615 0.005701
vn -0.297678 0.954649 0.005701
vn 0.000000 0.999982 0.005972
vn 0.000000 0.999982 0.005972
vn 0.297788 0.954615 0.005701
vn 0.297679 0.954649 0.005701
vn 0.572109 0.820163 0.004898
vn 0.571926 0.820291 0.004899
vn 0.797437 0.603391 0.003603
vn 0.797245 0.603645 0.003605
vn 0.947264 0.320447 0.001914
vn 0.947141 0.320813 0.001916
vn 1.000000 -0.000204 -0.000001
vn 1.000000 0.000206 0.000001
vn 0.000000 0.003990 -0.999992
vn 0.000001 0.003991 -0.999992
vn 0.000000 0.003991 -0.999992
vn -0.000000 0.003990 -0.999992
vn -0.000000 0.003990 -0.999992
vn 0.000000 0.003991 -0.999992
vn 0.000000 0.003990 -0.999992
vn 0.000000 0.003990 -0.999992
vn -0.000001 0.003991 -0.999992
vn -0.000000 0.003990 -0.999992
vn 0.000000 0.003990 -0.999992
vn -0.000000 0.003990 -0.999992
vn -0.000000 0.003989 -0.999992
vn 0.000003 0.003992 -0.999992
vn -0.000001 0.003992 -0.999992
vn -0.000000 0.003990 -0.999992
vn 0.000001 0.003992 -0.999992
vn -0.000003 0.003992 -0.999992
vn 0.000000 0.003989 -0.999992
vn 0.000000 0.003990 -0.999992
vn 0.000000 0.003990 -0.999992
vn 0.835287 -0.286994 0.468967
vn 0.690626 -0.529450 0.492665
vn 0.684747 -0.536189 0.493582
vn 0.833083 -0.292702 0.469360
vn 0.484433 -0.703362 0.520198
vn 0.477485 -0.707505 0.521004
vn 0.247553 -0.803764 0.541000
vn 0.243077 -0.804942 0.541278
vn -0.000000 -0.836080 0.548608
vn -0.000000 -0.836080 0.548608
vn -0.247553 -0.803764 0.541000
vn -0.243077 -0.804942 0.541278
vn -0.484434 -0.703362 0.520198
vn -0.477485 -0.707504 0.521004
vn -0.690626 -0.529450 0.492665
vn -0.684747 -0.536189 0.493582
vn -0.835286 -0.286995 0.468967
vn -0.833082 -0.292703 0.469360
vn -0.887942 -0.001662 0.459952
vn -0.887942 -0.002027 0.459951
vn -0.835661 0.283712 0.470295
vn -0.833707 0.288797 0.470669
vn -0.691249 0.526294 0.495165
vn -0.685718 0.532649 0.496061
vn -0.485071 0.700396 0.523595
vn -0.478409 0.704373 0.524389
vn -0.247948 0.800970 0.544948
vn -0.243623 0.802109 0.545223
vn -0.000000 0.833354 0.552740
vn -0.000000 0.833354 0.552740
vn 0.247948 0.800971 0.544948
vn 0.243623 0.802110 0.545223
vn 0.485071 0.700396 0.523594
vn 0.478409 0.704373 0.524388
vn 0.691249 0.526294 0.495165
vn 0.685718 0.532649 0.496061
vn 0.835661 0.283712 0.470296
vn 0.833707 0.288797 0.470669
vn 0.887942 -0.001661 0.459952
vn 0.887942 -0.002026 0.459951
vn -0.648903 -0.491699 -0.580652
vn -0.453131 -0.651728 -0.608213
vn -0.445807 -0.655945 -0.609092
vn -0.642384 -0.498922 -0.581738
vn -0.788104 -0.265560 -0.555311
vn -0.785356 -0.272412 -0.555884
vn -0.839842 0.003081 -0.542822
vn -0.839831 0.001140 -0.542847
vn -0.790530 0.272558 -0.548429
vn -0.789141 0.276145 -0.548635
vn -0.652857 0.500913 -0.568211
vn -0.648195 0.506193 -0.568869
vn -0.457073 0.663663 -0.592145
vn -0.451248 0.667081 -0.592772
vn -0.233202 0.756963 -0.610429
vn -0.229384 0.757950 -0.610651
vn 0.000000 0.786858 -0.617134
vn 0.000000 0.786858 -0.617134
vn 0.229384 0.757950 -0.610651
vn 0.233202 0.756963 -0.610429
vn 0.451248 0.667081 -0.592772
vn 0.457073 0.663663 -0.592145
vn 0.648195 0.506193 -0.568870
vn 0.652857 0.500913 -0.568211
vn 0.789141 0.276145 -0.548636
vn 0.790530 0.272558 -0.548429
vn 0.839831 0.001141 -0.542848
vn 0.839842 0.003082 -0.542822
vn 0.785356 -0.272412 -0.555884
vn 0.788104 -0.265560 -0.555311
vn 0.642384 -0.498923 -0.581738
vn 0.648903 -0.491700 -0.580652
vn 0.445806 -0.655945 -0.609092
vn 0.453131 -0.651728 -0.608213
vn 0.226194 -0.744063 -0.628655
vn 0.230789 -0.742897 -0.628363
vn -0.000000 -0.772000 -0.635622
vn -0.000000 -0.772000 -0.635622
vn -0.230789 -0.742897 -0.628363
vn -0.226195 -0.744062 -0.628655
vn -0.288751 -0.956404 -0.043762
vn 0.000000 -0.998816 -0.048639
vn 0.000000 -0.998816 -0.048639
vn -0.286522 -0.957070 -0.043839
vn -0.559161 -0.828483 -0.030899
vn -0.556101 -0.830533 -0.031090
vn -0.787377 -0.616288 -0.015068
vn -0.785427 -0.618768 -0.015221
vn -0.943557 -0.331194 -0.003257
vn -0.943443 -0.331518 -0.003265
vn -0.999997 -0.001951 -0.001678
vn -0.999997 0.001961 -0.001734
vn -0.944664 0.327800 -0.012494
vn -0.942137 0.334981 -0.012877
vn -0.788741 0.613873 -0.032377
vn -0.783180 0.620918 -0.033013
vn -0.560059 0.826674 -0.054263
vn -0.553725 0.830896 -0.054777
vn -0.289099 0.954679 -0.070787
vn -0.285002 0.955897 -0.070961
vn -0.000000 0.997041 -0.076878
vn -0.000000 0.997041 -0.076878
vn 0.289099 0.954678 -0.070787
vn 0.285002 0.955897 -0.070962
vn 0.560060 0.826673 -0.054264
vn 0.553726 0.830895 -0.054778
vn 0.788741 0.613873 -0.032375
vn 0.783181 0.620918 -0.033012
vn 0.944664 0.327800 -0.012494
vn 0.942137 0.334981 -0.012876
vn 0.999997 -0.001950 -0.001678
vn 0.999997 0.001962 -0.001734
vn 0.943557 -0.331193 -0.003256
vn 0.943444 -0.331517 -0.003264
vn 0.787376 -0.616289 -0.015067
vn 0.785426 -0.618768 -0.015220
vn 0.559161 -0.828483 -0.030899
vn 0.556100 -0.830534 -0.031090
vn 0.288751 -0.956404 -0.043762
vn 0.286521 -0.957070 -0.043839
s 1
g textureBakeSet4 pCylinder1
usemtl bullet_5SG
f 44/1/1 43/2/2 41/3/3
f 45/4/4 44/1/1 41/3/3
f 46/5/5 45/4/4 41/3/3
f 47/157/6 46/5/5 41/3/3
f 48/7/7 47/157/6 41/3/3
f 49/8/8 48/7/7 41/3/3
f 50/9/9 49/8/8 41/3/3
f 51/10/10 50/9/9 41/3/3
f 52/11/11 51/10/10 41/3/3
f 53/12/12 52/11/11 41/3/3
f 54/13/13 53/12/12 41/3/3
f 55/14/14 54/13/13 41/3/3
f 56/15/15 55/14/14 41/3/3
f 57/163/16 56/162/15 41/3/3
f 58/159/17 57/163/16 41/3/3
f 59/17/18 58/159/17 41/3/3
f 60/18/19 59/17/18 41/3/3
f 61/19/20 60/18/19 41/3/3
f 62/20/21 61/19/20 41/3/3
f 43/2/2 62/20/21 41/3/3
s 2
f 66/182/22 67/181/23 47/6/24 48/7/25
f 65/180/26 66/182/22 48/7/25 49/8/27
f 64/179/28 65/180/26 49/8/27 50/9/29
f 63/178/30 64/179/28 50/9/29 51/10/31
f 82/177/32 63/178/30 51/10/31 52/11/33
f 81/176/34 82/177/32 52/11/33 53/12/35
f 80/175/36 81/176/34 53/12/35 54/13/37
f 79/174/38 80/175/36 54/13/37 55/14/39
f 78/173/40 79/174/38 55/14/39 56/15/41
f 77/172/42 78/173/40 56/15/41 57/16/43
f 76/161/44 77/160/42 57/163/43 58/159/45
f 75/171/46 76/161/44 58/159/45 59/17/47
f 74/170/48 75/171/46 59/17/47 60/18/49
f 73/169/50 74/170/48 60/18/49 61/19/51
f 72/168/52 73/169/50 61/19/51 62/20/53
f 71/167/54 72/168/52 62/20/53 43/2/55
f 70/166/56 71/167/54 43/2/55 44/1/57
f 69/165/58 70/166/56 44/1/57 45/4/59
f 68/164/60 69/165/58 45/4/59 46/5/61
f 67/158/23 68/164/60 46/5/61 47/157/24
s 3
f 8/21/62 64/22/63 63/23/64 9/24/65
f 7/25/66 65/26/67 64/22/63 8/21/62
f 6/142/68 66/27/69 65/26/67 7/25/66
f 5/143/70 67/28/71 66/27/69 6/142/68
f 68/29/72 67/28/71 5/143/70 4/30/73
f 69/31/74 68/29/72 4/30/73 3/32/75
f 70/33/76 69/31/74 3/32/75 2/34/77
f 71/35/78 70/33/76 2/34/77 1/36/79
f 72/37/80 71/35/78 1/36/79 20/38/81
f 19/39/82 73/40/83 72/37/80 20/38/81
f 18/41/84 74/42/85 73/40/83 19/39/82
f 17/43/86 75/44/87 74/42/85 18/41/84
f 16/137/88 76/45/89 75/44/87 17/43/86
f 15/141/90 77/46/91 76/45/89 16/137/88
f 78/47/92 77/46/91 15/141/90 14/48/93
f 79/49/94 78/47/92 14/48/93 13/50/95
f 80/51/96 79/49/94 13/50/95 12/52/97
f 81/53/98 80/51/96 12/52/97 11/54/99
f 82/55/100 81/53/98 11/54/99 10/56/101
f 9/24/65 63/23/64 82/55/100 10/56/101
s 4
f 2/34/102 84/57/103 83/58/104 1/36/105
f 3/32/106 85/59/107 84/57/103 2/34/102
f 4/30/108 86/60/109 85/59/107 3/32/106
f 5/143/110 87/132/111 86/60/109 4/30/108
f 6/142/112 88/62/113 87/132/111 5/143/110
f 7/25/114 89/63/115 88/62/113 6/142/112
f 8/21/116 90/64/117 89/63/115 7/25/114
f 9/24/118 91/65/119 90/64/117 8/21/116
f 10/56/120 92/66/121 91/65/119 9/24/118
f 11/54/122 93/67/123 92/66/121 10/56/120
f 12/52/124 94/68/125 93/67/123 11/54/122
f 13/50/126 95/69/127 94/68/125 12/52/124
f 14/48/128 96/70/129 95/69/127 13/50/126
f 15/141/130 97/140/131 96/139/129 14/138/128
f 16/137/132 98/135/133 97/140/131 15/141/130
f 17/43/134 99/93/135 98/135/133 16/137/132
f 18/41/136 100/94/137 99/93/135 17/43/134
f 19/39/138 101/145/139 100/94/137 18/41/136
f 20/38/140 102/146/141 101/145/139 19/39/138
f 1/36/105 83/58/104 102/146/141 20/38/140
s 5
f 21/71/142 22/72/143 42/191/144
f 22/72/143 23/74/145 42/191/144
f 23/74/145 24/192/146 42/191/144
f 24/192/146 25/194/147 42/191/144
f 25/75/147 26/76/148 42/73/144
f 26/76/148 27/77/149 42/73/144
f 27/77/149 28/78/150 42/73/144
f 28/78/150 29/79/151 42/73/144
f 29/79/151 30/80/152 42/73/144
f 30/80/152 31/81/153 42/73/144
f 31/81/153 32/82/154 42/73/144
f 32/82/154 33/83/155 42/73/144
f 33/83/155 34/84/156 42/73/144
f 34/84/156 35/85/157 42/73/144
f 35/197/157 36/86/158 42/191/144
f 36/86/158 37/87/159 42/191/144
f 37/87/159 38/88/160 42/191/144
f 38/88/160 39/89/161 42/191/144
f 39/89/161 40/90/162 42/191/144
f 40/90/162 21/71/142 42/191/144
s 6
f 124/91/163 123/95/164 22/72/165 21/71/166
f 123/95/164 125/96/167 23/74/168 22/72/165
f 125/96/167 126/193/169 24/192/170 23/74/168
f 126/193/169 127/97/171 25/194/172 24/192/170
f 127/97/171 128/98/173 26/76/174 25/194/172
f 128/98/173 129/99/175 27/77/176 26/76/174
f 129/99/175 130/100/177 28/78/178 27/77/176
f 130/100/177 131/101/179 29/79/180 28/78/178
f 131/101/179 132/102/181 30/80/182 29/79/180
f 132/102/181 133/103/183 31/81/184 30/80/182
f 133/103/183 134/104/185 32/82/186 31/81/184
f 134/104/185 135/105/187 33/83/188 32/82/186
f 135/105/187 136/106/189 34/84/190 33/83/188
f 136/196/189 137/198/191 35/197/192 34/195/190
f 137/198/191 138/107/193 36/86/194 35/197/192
f 138/107/193 139/108/195 37/87/196 36/86/194
f 139/108/195 140/109/197 38/88/198 37/87/196
f 140/109/197 141/110/199 39/89/200 38/88/198
f 141/110/199 142/111/201 40/90/202 39/89/200
f 142/111/201 124/91/163 21/71/166 40/90/202
s 7
f 110/147/203 109/148/204 89/63/205 90/64/206
f 111/149/207 110/147/203 90/64/206 91/65/208
f 112/183/209 111/149/207 91/65/208 92/66/210
f 113/184/211 112/183/209 92/66/210 93/67/212
f 114/185/213 113/184/211 93/67/212 94/68/214
f 115/186/215 114/185/213 94/68/214 95/69/216
f 116/190/217 115/186/215 95/69/216 96/70/218
f 117/189/219 116/190/217 96/70/218 97/92/220
f 98/135/221 118/188/222 117/136/219 97/140/220
f 99/93/223 119/187/224 118/188/222 98/135/221
f 100/94/225 120/156/226 119/187/224 99/93/223
f 101/145/227 121/155/228 120/156/226 100/94/225
f 102/146/229 122/154/230 121/155/228 101/145/227
f 83/58/231 104/153/232 122/154/230 102/146/229
f 84/57/233 103/152/234 104/153/232 83/58/231
f 85/59/235 105/151/236 103/152/234 84/57/233
f 86/60/237 106/133/238 105/151/236 85/59/235
f 87/132/239 107/134/240 106/133/238 86/60/237
f 108/144/241 107/150/240 87/61/239 88/62/242
f 109/148/204 108/144/241 88/62/242 89/63/205
s 8
f 128/98/243 127/97/244 107/112/245 108/113/246
f 129/99/247 128/98/243 108/113/246 109/114/248
f 130/100/249 129/99/247 109/114/248 110/115/250
f 131/101/251 130/100/249 110/115/250 111/116/252
f 132/102/253 131/101/251 111/116/252 112/117/254
f 133/103/255 132/102/253 112/117/254 113/118/256
f 134/104/257 133/103/255 113/118/256 114/119/258
f 135/105/259 134/104/257 114/119/258 115/120/260
f 136/106/261 135/105/259 115/120/260 116/121/262
f 137/198/263 136/106/261 116/121/262 117/122/264
f 138/107/265 137/198/263 117/122/264 118/123/266
f 139/108/267 138/107/265 118/123/266 119/124/268
f 140/109/269 139/108/267 119/124/268 120/125/270
f 141/110/271 140/109/269 120/125/270 121/126/272
f 142/111/273 141/110/271 121/126/272 122/127/274
f 124/91/275 142/111/273 122/127/274 104/128/276
f 123/95/277 124/91/275 104/128/276 103/129/278
f 125/96/279 123/95/277 103/129/278 105/130/280
f 126/193/281 125/96/279 105/130/280 106/131/282
f 127/97/244 126/193/281 106/131/282 107/112/245
